<?xml version="1.0" encoding="UTF-8"?>
<!DOCTYPE svg PUBLIC "-//W3C//DTD SVG 1.0//EN" "http://www.w3.org/TR/2001/REC-SVG-20010904/DTD/svg10.dtd">
<!-- Creator: CorelDRAW 2020 (64-Bit) -->
<svg xmlns="http://www.w3.org/2000/svg" xml:space="preserve" width="467px" height="340px" version="1.0" style="shape-rendering:geometricPrecision; text-rendering:geometricPrecision; image-rendering:optimizeQuality; fill-rule:evenodd; clip-rule:evenodd"
viewBox="0 0 496.99 361.41"
 xmlns:xlink="http://www.w3.org/1999/xlink"
 xmlns:xodm="http://www.corel.com/coreldraw/odm/2003">
 <defs>
  <style type="text/css">
   <![CDATA[
    .fil1 {fill:#031B49}
    .fil2 {fill:#296CBB}
    .fil0 {fill:#373435;fill-rule:nonzero}
   ]]>
  </style>
 </defs>
 <g id="Layer_x0020_1">
  <metadata id="CorelCorpID_0Corel-Layer"/>
  <g id="_2118939859088">
   <path class="fil0" d="M87.58 255.36l-33.03 62 -21.47 0 -32.92 -62 23.56 0 20.92 40.39 21.36 -40.39 21.58 0zm53.5 49.96l-32.59 0 -6.05 12.04 -22.24 0 34.02 -62 21.47 0 34.12 62 -22.67 0 -6.06 -12.04zm-6.38 -12.93l-9.91 -19.84 -9.91 19.84 19.82 0zm41.28 -37.03l21.8 0 0 48.1 36.77 0 0 13.9 -58.57 0 0 -62zm104.81 63.24c-8.15,0 -15.47,-1.38 -21.97,-4.16 -6.49,-2.77 -11.59,-6.61 -15.3,-11.51 -3.71,-4.9 -5.56,-10.42 -5.56,-16.57 0,-6.14 1.85,-11.66 5.56,-16.56 3.71,-4.9 8.81,-8.74 15.3,-11.51 6.5,-2.78 13.82,-4.17 21.97,-4.17 8.14,0 15.46,1.39 21.96,4.17 6.49,2.77 11.6,6.61 15.3,11.51 3.71,4.9 5.56,10.42 5.56,16.56 0,6.15 -1.85,11.67 -5.56,16.57 -3.7,4.9 -8.81,8.74 -15.3,11.51 -6.5,2.78 -13.82,4.16 -21.96,4.16zm0 -14.52c3.89,0 7.41,-0.74 10.56,-2.22 3.16,-1.47 5.66,-3.55 7.49,-6.24 1.84,-2.69 2.75,-5.77 2.75,-9.26 0,-3.48 -0.91,-6.57 -2.75,-9.25 -1.83,-2.69 -4.33,-4.77 -7.49,-6.25 -3.15,-1.47 -6.67,-2.21 -10.56,-2.21 -3.89,0 -7.42,0.74 -10.57,2.21 -3.16,1.48 -5.65,3.56 -7.49,6.25 -1.83,2.68 -2.75,5.77 -2.75,9.25 0,3.49 0.92,6.57 2.75,9.26 1.84,2.69 4.33,4.77 7.49,6.24 3.15,1.48 6.68,2.22 10.57,2.22zm87.96 -3.19l-11.89 0 0 16.47 -21.8 0 0 -62 35.23 0c6.97,0 13.03,0.93 18.17,2.79 5.13,1.86 9.1,4.52 11.89,7.98 2.79,3.45 4.18,7.51 4.18,12.17 0,4.49 -1.3,8.4 -3.91,11.74 -2.6,3.34 -6.33,5.95 -11.17,7.84l16.62 19.48 -23.34 0 -13.98 -16.47zm13.76 -22.59c0,-2.89 -1.14,-5.13 -3.41,-6.73 -2.28,-1.59 -5.65,-2.39 -10.13,-2.39l-12.11 0 0 18.16 12.11 0c4.48,0 7.85,-0.78 10.13,-2.35 2.27,-1.56 3.41,-3.79 3.41,-6.69zm85.65 27.02l-32.58 0 -6.06 12.04 -22.24 0 34.02 -62 21.47 0 34.13 62 -22.68 0 -6.06 -12.04zm-6.38 -12.93l-9.91 -19.84 -9.91 19.84 19.82 0z"/>
   <polygon class="fil1" points="305.93,98.34 341.8,98.34 341.8,179.32 315.13,194.36 243.34,234.85 169.2,194.36 148.02,182.79 148.02,98.34 183.88,98.34 183.88,160.81 244.04,194.08 305.93,160.81 "/>
   <path class="fil2" d="M289.16 96.02c0,24.28 -19.68,43.97 -43.96,43.97 -24.28,0 -43.96,-19.69 -43.96,-43.97 0,-18.4 33.32,-76.84 42.8,-96.02 10.19,19.4 45.12,77.03 45.12,96.02z"/>
   <path class="fil0" d="M3.54 342.61l0 18.62 -3.54 0 0 -18.62 3.54 0zm22.36 18.62l-3.54 0 -10.64 -13.9 0 13.9 -3.53 0 0 -18.64 3.53 0 10.64 13.87 0 -13.87 3.54 0 0 18.64zm18.58 -18.62l0 2.5 -5.74 0 0 16.12 -3.54 0 0 -16.12 -5.77 0 0 -2.5 15.05 0zm7.1 2.47l0 5.46 7.44 0 0 2.49 -7.44 0 0 5.71 8.37 0 0 2.49 -11.91 0 0 -18.64 11.91 0 0 2.49 -8.37 0zm28.31 2.89c-0.56,-0.93 -1.33,-1.63 -2.32,-2.1 -1,-0.47 -2.14,-0.71 -3.44,-0.71 -1.43,0 -2.7,0.28 -3.82,0.83 -1.12,0.55 -1.99,1.34 -2.62,2.36 -0.63,1.01 -0.95,2.19 -0.95,3.53 0,1.34 0.32,2.52 0.95,3.55 0.63,1.03 1.5,1.81 2.62,2.37 1.12,0.55 2.39,0.83 3.82,0.83 1.92,0 3.48,-0.47 4.68,-1.39 1.2,-0.93 1.93,-2.19 2.2,-3.78l-8.1 0 0 -2.44 11.88 0 0 2.39c-0.22,1.44 -0.82,2.77 -1.78,3.99 -0.96,1.21 -2.21,2.18 -3.75,2.9 -1.54,0.72 -3.25,1.09 -5.13,1.09 -2.03,0 -3.88,-0.41 -5.56,-1.22 -1.67,-0.81 -3,-1.94 -3.98,-3.39 -0.98,-1.45 -1.47,-3.08 -1.47,-4.9 0,-1.82 0.49,-3.45 1.47,-4.9 0.98,-1.45 2.31,-2.57 4,-3.39 1.68,-0.81 3.53,-1.22 5.54,-1.22 2.29,0 4.33,0.49 6.12,1.46 1.79,0.98 3.09,2.36 3.89,4.14l-4.25 0zm19.57 13.26l-4.96 -7.45 -2.7 0 0 7.45 -3.53 0 0 -18.62 7.44 0c1.65,0 3.05,0.25 4.2,0.75 1.15,0.5 2.01,1.17 2.57,2.01 0.57,0.84 0.86,1.78 0.86,2.82 0,1.21 -0.41,2.31 -1.23,3.3 -0.81,0.99 -2.07,1.67 -3.77,2.02l5.34 7.72 -4.22 0zm-7.66 -9.88l3.91 0c1.32,0 2.32,-0.29 2.99,-0.86 0.67,-0.57 1.01,-1.34 1.01,-2.3 0,-0.97 -0.33,-1.72 -0.99,-2.27 -0.66,-0.54 -1.67,-0.81 -3.01,-0.81l-3.91 0 0 6.24zm29.06 6.07l-9.02 0 -1.55 3.81 -3.69 0 7.72 -18.64 4.09 0 7.72 18.64 -3.72 0 -1.55 -3.81zm-0.99 -2.49l-3.51 -8.65 -3.53 8.65 7.04 0zm23.54 -12.32l0 2.5 -5.74 0 0 16.12 -3.54 0 0 -16.12 -5.76 0 0 -2.5 15.04 0zm7.1 0l0 18.62 -3.54 0 0 -18.62 3.54 0zm14.48 18.8c-2,0 -3.85,-0.4 -5.53,-1.22 -1.69,-0.81 -3.02,-1.94 -4,-3.4 -0.98,-1.45 -1.48,-3.09 -1.48,-4.91 0,-1.82 0.5,-3.45 1.48,-4.9 0.98,-1.45 2.31,-2.57 4,-3.39 1.68,-0.81 3.53,-1.22 5.53,-1.22 2.03,0 3.89,0.41 5.57,1.22 1.69,0.82 3.01,1.94 3.99,3.39 0.97,1.45 1.45,3.08 1.45,4.9 0,1.82 -0.48,3.46 -1.45,4.91 -0.98,1.46 -2.3,2.59 -3.99,3.4 -1.68,0.82 -3.54,1.22 -5.57,1.22zm0 -2.65c1.43,0 2.7,-0.28 3.82,-0.84 1.11,-0.56 1.99,-1.37 2.62,-2.41 0.63,-1.05 0.94,-2.25 0.94,-3.63 0,-1.37 -0.31,-2.58 -0.94,-3.61 -0.63,-1.04 -1.51,-1.83 -2.62,-2.39 -1.12,-0.55 -2.39,-0.83 -3.82,-0.83 -1.42,0 -2.69,0.28 -3.81,0.83 -1.12,0.56 -1.99,1.35 -2.62,2.39 -0.63,1.03 -0.95,2.24 -0.95,3.61 0,1.38 0.32,2.58 0.95,3.63 0.63,1.04 1.5,1.85 2.62,2.41 1.12,0.56 2.39,0.84 3.81,0.84zm32.19 2.47l-3.53 0 -10.64 -13.9 0 13.9 -3.53 0 0 -18.64 3.53 0 10.64 13.87 0 -13.87 3.53 0 0 18.64zm19.82 0.18c-1.44,0 -2.75,-0.22 -3.9,-0.65 -1.16,-0.44 -2.07,-1.06 -2.73,-1.86 -0.67,-0.81 -1,-1.74 -1,-2.82l3.79 0c0.08,0.81 0.45,1.47 1.1,1.99 0.65,0.51 1.56,0.77 2.74,0.77 1.22,0 2.17,-0.25 2.86,-0.76 0.68,-0.51 1.02,-1.16 1.02,-1.97 0,-0.62 -0.21,-1.13 -0.64,-1.53 -0.42,-0.39 -0.95,-0.69 -1.58,-0.91 -0.63,-0.21 -1.5,-0.44 -2.62,-0.69 -1.4,-0.32 -2.55,-0.65 -3.43,-0.98 -0.87,-0.33 -1.62,-0.84 -2.24,-1.54 -0.62,-0.69 -0.93,-1.62 -0.93,-2.78 0,-1.07 0.31,-2.01 0.93,-2.81 0.62,-0.81 1.48,-1.42 2.6,-1.85 1.12,-0.43 2.41,-0.65 3.88,-0.65 2.09,0 3.8,0.45 5.13,1.36 1.33,0.9 2.07,2.13 2.22,3.71l-3.91 0c-0.06,-0.68 -0.43,-1.26 -1.12,-1.75 -0.68,-0.48 -1.58,-0.72 -2.69,-0.72 -1.02,0 -1.84,0.23 -2.49,0.67 -0.64,0.45 -0.96,1.09 -0.96,1.93 0,0.57 0.21,1.04 0.61,1.4 0.4,0.37 0.91,0.66 1.53,0.88 0.62,0.21 1.47,0.44 2.55,0.69 1.42,0.34 2.59,0.68 3.48,1.02 0.9,0.34 1.67,0.86 2.3,1.57 0.63,0.7 0.95,1.64 0.95,2.82 0,0.95 -0.3,1.84 -0.89,2.68 -0.59,0.84 -1.45,1.51 -2.57,2.02 -1.13,0.51 -2.46,0.76 -3.99,0.76zm21.46 0c-2,0 -3.85,-0.4 -5.53,-1.22 -1.69,-0.81 -3.02,-1.94 -4,-3.4 -0.98,-1.45 -1.48,-3.09 -1.48,-4.91 0,-1.82 0.5,-3.45 1.48,-4.9 0.98,-1.45 2.31,-2.57 4,-3.39 1.68,-0.81 3.53,-1.22 5.53,-1.22 2.03,0 3.89,0.41 5.57,1.22 1.68,0.82 3.01,1.94 3.99,3.39 0.97,1.45 1.45,3.08 1.45,4.9 0,1.82 -0.48,3.46 -1.45,4.91 -0.98,1.46 -2.31,2.59 -3.99,3.4 -1.68,0.82 -3.54,1.22 -5.57,1.22zm0 -2.65c1.43,0 2.7,-0.28 3.82,-0.84 1.11,-0.56 1.99,-1.37 2.62,-2.41 0.63,-1.05 0.94,-2.25 0.94,-3.63 0,-1.37 -0.31,-2.58 -0.94,-3.61 -0.63,-1.04 -1.51,-1.83 -2.62,-2.39 -1.12,-0.55 -2.39,-0.83 -3.82,-0.83 -1.42,0 -2.69,0.28 -3.81,0.83 -1.12,0.56 -1.99,1.35 -2.62,2.39 -0.63,1.03 -0.95,2.24 -0.95,3.61 0,1.38 0.32,2.58 0.95,3.63 0.63,1.04 1.5,1.85 2.62,2.41 1.12,0.56 2.39,0.84 3.81,0.84zm18.02 0l7.29 0 0 2.47 -10.82 0 0 -18.62 3.53 0 0 16.15zm13.74 -16.15l0 11.87c0,1.41 0.43,2.47 1.29,3.18 0.86,0.72 2.05,1.08 3.58,1.08 1.55,0 2.75,-0.36 3.61,-1.08 0.86,-0.71 1.29,-1.77 1.29,-3.18l0 -11.87 3.53 0 0 11.81c0,1.52 -0.38,2.81 -1.14,3.86 -0.77,1.05 -1.79,1.84 -3.07,2.36 -1.28,0.51 -2.7,0.77 -4.25,0.77 -1.55,0 -2.96,-0.26 -4.23,-0.77 -1.28,-0.52 -2.28,-1.31 -3.03,-2.36 -0.74,-1.05 -1.11,-2.34 -1.11,-3.86l0 -11.81 3.53 0zm31.82 0l0 2.5 -5.74 0 0 16.12 -3.53 0 0 -16.12 -5.77 0 0 -2.5 15.04 0zm7.1 0l0 18.62 -3.53 0 0 -18.62 3.53 0zm14.49 18.8c-2.01,0 -3.85,-0.4 -5.54,-1.22 -1.68,-0.81 -3.02,-1.94 -4,-3.4 -0.98,-1.45 -1.47,-3.09 -1.47,-4.91 0,-1.82 0.49,-3.45 1.47,-4.9 0.98,-1.45 2.32,-2.57 4,-3.39 1.69,-0.81 3.53,-1.22 5.54,-1.22 2.02,0 3.88,0.41 5.56,1.22 1.69,0.82 3.02,1.94 3.99,3.39 0.97,1.45 1.46,3.08 1.46,4.9 0,1.82 -0.49,3.46 -1.46,4.91 -0.97,1.46 -2.3,2.59 -3.99,3.4 -1.68,0.82 -3.54,1.22 -5.56,1.22zm0 -2.65c1.42,0 2.7,-0.28 3.81,-0.84 1.12,-0.56 1.99,-1.37 2.62,-2.41 0.63,-1.05 0.95,-2.25 0.95,-3.63 0,-1.37 -0.32,-2.58 -0.95,-3.61 -0.63,-1.04 -1.5,-1.83 -2.62,-2.39 -1.11,-0.55 -2.39,-0.83 -3.81,-0.83 -1.43,0 -2.7,0.28 -3.82,0.83 -1.11,0.56 -1.99,1.35 -2.62,2.39 -0.63,1.03 -0.94,2.24 -0.94,3.61 0,1.38 0.31,2.58 0.94,3.63 0.63,1.04 1.51,1.85 2.62,2.41 1.12,0.56 2.39,0.84 3.82,0.84zm32.19 2.47l-3.54 0 -10.64 -13.9 0 13.9 -3.53 0 0 -18.64 3.53 0 10.64 13.87 0 -13.87 3.54 0 0 18.64zm11.75 0.18c-1.44,0 -2.75,-0.22 -3.91,-0.65 -1.15,-0.44 -2.06,-1.06 -2.72,-1.86 -0.67,-0.81 -1,-1.74 -1,-2.82l3.79 0c0.08,0.81 0.45,1.47 1.1,1.99 0.65,0.51 1.56,0.77 2.74,0.77 1.22,0 2.17,-0.25 2.86,-0.76 0.68,-0.51 1.02,-1.16 1.02,-1.97 0,-0.62 -0.21,-1.13 -0.64,-1.53 -0.42,-0.39 -0.95,-0.69 -1.58,-0.91 -0.63,-0.21 -1.5,-0.44 -2.62,-0.69 -1.41,-0.32 -2.55,-0.65 -3.43,-0.98 -0.88,-0.33 -1.62,-0.84 -2.24,-1.54 -0.62,-0.69 -0.93,-1.62 -0.93,-2.78 0,-1.07 0.31,-2.01 0.93,-2.81 0.62,-0.81 1.48,-1.42 2.6,-1.85 1.12,-0.43 2.41,-0.65 3.88,-0.65 2.09,0 3.8,0.45 5.13,1.36 1.33,0.9 2.07,2.13 2.22,3.71l-3.91 0c-0.06,-0.68 -0.43,-1.26 -1.12,-1.75 -0.68,-0.48 -1.58,-0.72 -2.69,-0.72 -1.02,0 -1.85,0.23 -2.49,0.67 -0.64,0.45 -0.96,1.09 -0.96,1.93 0,0.57 0.21,1.04 0.61,1.4 0.4,0.37 0.91,0.66 1.53,0.88 0.62,0.21 1.47,0.44 2.55,0.69 1.42,0.34 2.59,0.68 3.48,1.02 0.9,0.34 1.67,0.86 2.3,1.57 0.63,0.7 0.94,1.64 0.94,2.82 0,0.95 -0.29,1.84 -0.88,2.68 -0.59,0.84 -1.45,1.51 -2.57,2.02 -1.13,0.51 -2.46,0.76 -3.99,0.76zm23.23 -2.65l7.29 0 0 2.47 -10.83 0 0 -18.62 3.54 0 0 16.15zm13.77 -16.15l0 18.62 -3.54 0 0 -18.62 3.54 0zm27.35 0l0 18.62 -3.53 0 0 -12.75 -6.58 12.75 -2.45 0 -6.6 -12.75 0 12.75 -3.54 0 0 -18.62 3.82 0 7.56 14.6 7.54 -14.6 3.78 0zm8.19 0l0 18.62 -3.53 0 0 -18.62 3.53 0zm18.58 0l0 2.5 -5.74 0 0 16.12 -3.53 0 0 -16.12 -5.77 0 0 -2.5 15.04 0zm7.1 2.47l0 5.46 7.44 0 0 2.49 -7.44 0 0 5.71 8.38 0 0 2.49 -11.91 0 0 -18.64 11.91 0 0 2.49 -8.38 0zm19.76 -2.47c2.29,0 4.3,0.38 6.03,1.14 1.73,0.76 3.06,1.85 4,3.27 0.94,1.42 1.41,3.08 1.41,4.97 0,1.89 -0.47,3.53 -1.41,4.93 -0.94,1.39 -2.27,2.45 -4,3.2 -1.73,0.74 -3.74,1.11 -6.03,1.11l-7.04 0 0 -18.62 7.04 0zm0 16.13c2.52,0 4.45,-0.59 5.8,-1.77 1.34,-1.18 2.01,-2.84 2.01,-4.98 0,-2.16 -0.67,-3.85 -2.01,-5.06 -1.35,-1.22 -3.28,-1.82 -5.8,-1.82l-3.51 0 0 13.63 3.51 0z"/>
  </g>
 </g>
</svg>
